<svg width="76" height="87" viewBox="0 0 76 87" fill="none" xmlns="http://www.w3.org/2000/svg">
<g id="Frame 31">
<path id="Body" d="M46 40.6968C43.2549 39 39.8947 39 37.9273 39C35.6955 39 33 39 30 40.6968C29.5425 46.836 30 40.6968 29.5425 45.336C29.4533 52.2778 29.1153 55.9936 28.5285 60.8769C27.939 65.7822 27.3605 69.2181 26.7928 71.1847C26.2252 73.1512 25.33 75.7033 24.1074 78.8409L23.5179 80.233C23.0813 81.3378 23.1031 82.4205 23.5834 83.4811C24.0638 84.5417 24.8497 85.2929 25.9413 85.7349C26.3343 85.9116 26.8365 86 27.4478 86C29.369 86 30.679 85.0941 31.3776 83.2822L31.9016 81.9564C34.2595 75.8138 35.8096 70.0909 36.5519 64.7879H39.3028C40.0451 70.0909 41.5952 75.8138 43.9531 81.9564L44.477 83.2822C45.1757 85.0941 46.4856 86 48.4069 86C49.0182 86 49.5203 85.9116 49.9133 85.7349C51.0049 85.2929 51.7909 84.5417 52.2712 83.4811C52.7515 82.4205 52.7734 81.3378 52.3367 80.233L51.7472 78.8409C50.5246 75.7033 49.6295 73.1512 49.0618 71.1847C48.4942 69.2181 47.9157 65.7822 47.3262 60.8769C46.744 56.0321 46.4067 52.371 46.3143 45.5C46 40.6968 46.3143 47 46 40.6968Z" fill="#0D9488" stroke="#115E59" stroke-width="2"/>
<path id="Arms" d="M23 59L23 61.5C23 63.7091 21.2091 65.5 19 65.5V65.5C16.7909 65.5 15 63.7091 15 61.5L15 59C15 46.2975 25.2975 36 38 36C50.7025 36 61 46.2975 61 59L61 61.5C61 63.7091 59.2091 65.5 57 65.5V65.5C54.7909 65.5 53 63.7091 53 61.5L53 59C53 50.7157 46.2843 44 38 44C29.7157 44 23 50.7157 23 59Z" fill="#0D9488" stroke="#115E59" stroke-width="2"/>
<path id="Weight" d="M1 1H9V8H67V1H75V20H67V12H9V20H1V1Z" fill="#0D9488" stroke="#115E59" stroke-width="2"/>
<path id="Head" d="M43.8548 18.4858C45.4923 20.143 46.311 22.1427 46.311 24.4849C46.311 26.827 45.4923 28.8267 43.8548 30.4839C42.2174 32.1411 40.2416 32.9697 37.9273 32.9697C35.6131 32.9697 33.6373 32.1411 31.9999 30.4839C30.3624 28.8267 29.5437 26.827 29.5437 24.4849C29.5437 22.1427 30.3624 20.143 31.9999 18.4858C33.6373 16.8286 35.6131 16 37.9273 16C40.2416 16 42.2174 16.8286 43.8548 18.4858Z" fill="#0D9488" stroke="#115E59" stroke-width="2"/>
</g>
</svg>
